<?xml version="1.0" encoding="UTF-8" standalone="no"?>
<svg width="20px" height="19px" viewBox="0 0 20 19" version="1.1" xmlns="http://www.w3.org/2000/svg" xmlns:xlink="http://www.w3.org/1999/xlink" xmlns:sketch="http://www.bohemiancoding.com/sketch/ns">
    <!-- Generator: Sketch 3.5.1 (25234) - http://www.bohemiancoding.com/sketch -->
    <title>fuzz-feed</title>
    <desc>Created with Sketch.</desc>
    <defs></defs>
    <g id="Icons" stroke="none" stroke-width="1" fill="none" fill-rule="evenodd" sketch:type="MSPage">
        <path d="M18.988764,0 L5.50561798,0 C4.88516854,0 4.26966292,0.496452328 4.26966292,1.10864745 L4.26966292,5.09977827 L1.23595506,5.09977827 C0.615505618,5.09977827 0,5.59600887 0,6.20842572 L0,14.4124169 C0,16.3669623 1.22134831,17.8272727 2.88269663,18.0432373 C3.04404494,18.1314856 3.2858427,18.1818182 3.48314607,18.1818182 L16.7035955,18.1818182 C18.7424719,18.1818182 20,16.6669623 20,14.4124169 L20,1.10864745 C20,0.496452328 19.6094382,0 18.988764,0 L18.988764,0 Z M4.26966292,14.4124169 C4.26966292,15.2609756 3.85370787,15.8536585 3.25842697,15.8536585 C2.65370787,15.8536585 2.24719101,15.2745011 2.24719101,14.4124169 L2.24719101,7.31707317 L4.26966292,7.31707317 L4.26966292,14.4124169 Z M9.7752809,6.20842572 L15.1685393,6.20842572 C15.7892135,6.20842572 16.2921348,5.71219512 16.2921348,5.09977827 C16.2921348,4.48736142 15.7892135,3.99113082 15.1685393,3.99113082 L9.7752809,3.99113082 C9.15483146,3.99113082 8.65168539,4.48736142 8.65168539,5.09977827 C8.65168539,5.71219512 9.15483146,6.20842572 9.7752809,6.20842572 Z M9.7752809,10.1995565 L15.1685393,10.1995565 C15.7892135,10.1995565 16.2921348,9.70332594 16.2921348,9.09090909 C16.2921348,8.47849224 15.7892135,7.98226164 15.1685393,7.98226164 L9.7752809,7.98226164 C9.15483146,7.98226164 8.65168539,8.47849224 8.65168539,9.09090909 C8.65168539,9.70332594 9.15483146,10.1995565 9.7752809,10.1995565 Z M9.7752809,14.1906874 L15.1685393,14.1906874 C15.7892135,14.1906874 16.2921348,13.6944568 16.2921348,13.0820399 C16.2921348,12.4696231 15.7892135,11.9733925 15.1685393,11.9733925 L9.7752809,11.9733925 C9.15483146,11.9733925 8.65168539,12.4696231 8.65168539,13.0820399 C8.65168539,13.6944568 9.15483146,14.1906874 9.7752809,14.1906874 Z" id="fuzz-feed" fill="#E64D3A" sketch:type="MSShapeGroup"></path>
    </g>
</svg>