<?xml version="1.0" encoding="UTF-8" standalone="no"?>
<svg width="20px" height="18px" viewBox="0 0 20 18" version="1.1" xmlns="http://www.w3.org/2000/svg" xmlns:xlink="http://www.w3.org/1999/xlink" xmlns:sketch="http://www.bohemiancoding.com/sketch/ns">
    <!-- Generator: Sketch 3.5.1 (25234) - http://www.bohemiancoding.com/sketch -->
    <title>Shape</title>
    <desc>Created with Sketch.</desc>
    <defs></defs>
    <g id="FuzzLegal" stroke="none" stroke-width="1" fill="none" fill-rule="evenodd" sketch:type="MSPage">
        <g id="Main-Screen-Copy-18" sketch:type="MSArtboardGroup" transform="translate(-804.000000, -2100.000000)" fill="#FFFFFF">
            <g id="Group-3-Copy" sketch:type="MSLayerGroup" transform="translate(764.000000, 2088.000000)">
                <g id="Group" transform="translate(40.000000, 10.000000)" sketch:type="MSShapeGroup">
                    <g id="Group-4">
                        <path d="M17,7 L3,7 C1.3,7 0,8.3 0,10 L0,16 L4,16 L4,20 L16,20 L16,16 L20,16 L20,10 C20,8.3 18.7,7 17,7 L17,7 Z M14,18 L6,18 L6,13 L14,13 L14,18 L14,18 Z M17,11 C16.4,11 16,10.6 16,10 C16,9.4 16.4,9 17,9 C17.6,9 18,9.4 18,10 C18,10.6 17.6,11 17,11 L17,11 Z M16,2 L4,2 L4,6 L16,6 L16,2 L16,2 Z" id="Shape"></path>
                    </g>
                </g>
            </g>
        </g>
    </g>
</svg>