<?xml version="1.0" encoding="UTF-8" standalone="no"?>
<svg width="20px" height="19px" viewBox="0 0 20 19" version="1.1" xmlns="http://www.w3.org/2000/svg" xmlns:xlink="http://www.w3.org/1999/xlink" xmlns:sketch="http://www.bohemiancoding.com/sketch/ns">
    <!-- Generator: Sketch 3.5.1 (25234) - http://www.bohemiancoding.com/sketch -->
    <title>fuzz-friends</title>
    <desc>Created with Sketch.</desc>
    <defs></defs>
    <g id="Icons" stroke="none" stroke-width="1" fill="none" fill-rule="evenodd" sketch:type="MSPage">
        <path d="M6.3666325,7.66669376 C8.51533549,7.66669376 10.2594023,5.94976922 10.2594023,3.83319161 C10.2594023,1.716614 8.51565087,1.33226763e-15 6.3666325,1.33226763e-15 C4.21824489,1.33226763e-15 2.47386265,1.71692453 2.47386265,3.83350214 C2.47386265,5.95007976 4.21824489,7.66669376 6.3666325,7.66669376 Z M14.6539462,10.0490857 C13.4289994,10.0490857 12.3005598,10.547177 11.3988804,11.3821942 C10.2338563,9.57490523 8.41346685,8.40948332 6.36694788,8.40948332 C2.85200662,8.40948332 0,11.8436429 0,16.0761771 C0,17.4887815 0.949617598,18.6315346 2.12252622,18.6315346 L10.6116849,18.6315346 C10.6968383,18.6315346 10.7800993,18.6237714 10.8627296,18.6122817 C10.93716,18.6240819 11.0128518,18.6318452 11.0901206,18.6318452 L18.2177718,18.6318452 C19.2027123,18.6318452 20,17.6723051 20,16.4860777 C20,12.9323637 17.6052984,10.0490857 14.6539462,10.0490857 Z M14.6539462,9.42585047 C16.4582512,9.42585047 17.9222581,7.98405619 17.9222581,6.20719922 C17.9222581,4.43034225 16.4579358,2.98854797 14.6539462,2.98854797 C12.8499566,2.98854797 11.3859497,4.43034225 11.3859497,6.20719922 C11.3859497,7.98405619 12.8496413,9.42585047 14.6539462,9.42585047 Z" id="fuzz-friends" fill="#E64D3A" sketch:type="MSShapeGroup"></path>
    </g>
</svg>