<?xml version="1.0" encoding="UTF-8" standalone="no"?>
<svg width="20px" height="27px" viewBox="0 0 20 27" version="1.1" xmlns="http://www.w3.org/2000/svg" xmlns:xlink="http://www.w3.org/1999/xlink" xmlns:sketch="http://www.bohemiancoding.com/sketch/ns">
    <!-- Generator: Sketch 3.5.1 (25234) - http://www.bohemiancoding.com/sketch -->
    <title>password</title>
    <desc>Created with Sketch.</desc>
    <defs></defs>
    <g id="Icons" stroke="none" stroke-width="1" fill="none" fill-rule="evenodd" sketch:type="MSPage">
        <path d="M17.5,8.88888889 L16.25,8.88888889 L16.25,6.34920635 C16.25,2.79365079 13.5,0 10,0 C6.5,0 3.75,2.79365079 3.75,6.34920635 L3.75,8.88888889 L2.5,8.88888889 C1.125,8.88888889 0,10.031746 0,11.4285714 L0,24.1269841 C0,25.5238095 1.125,26.6666667 2.5,26.6666667 L17.5,26.6666667 C18.875,26.6666667 20,25.5238095 20,24.1269841 L20,11.4285714 C20,10.031746 18.875,8.88888889 17.5,8.88888889 L17.5,8.88888889 Z M10,20.3174603 C8.625,20.3174603 7.5,19.1746032 7.5,17.7777778 C7.5,16.3809524 8.625,15.2380952 10,15.2380952 C11.375,15.2380952 12.5,16.3809524 12.5,17.7777778 C12.5,19.1746032 11.375,20.3174603 10,20.3174603 L10,20.3174603 Z M13.875,8.88888889 L6.125,8.88888889 L6.125,6.34920635 C6.125,4.19047619 7.875,2.41269841 10,2.41269841 C12.125,2.41269841 13.875,4.19047619 13.875,6.34920635 L13.875,8.88888889 L13.875,8.88888889 Z" id="password" opacity="0.8" fill="#2C3E51" sketch:type="MSShapeGroup"></path>
    </g>
</svg>