<?xml version="1.0" encoding="UTF-8" standalone="no"?>
<svg width="35px" height="40px" viewBox="0 0 35 40" version="1.1" xmlns="http://www.w3.org/2000/svg" xmlns:xlink="http://www.w3.org/1999/xlink">
    <!-- Generator: Sketch 39.1 (31720) - http://www.bohemiancoding.com/sketch -->
    <title>_lost-pin (1)</title>
    <desc>Created with Sketch.</desc>
    <defs></defs>
    <g id="Page-1" stroke="none" stroke-width="1" fill="none" fill-rule="evenodd">
        <g id="_lost-pin-(1)">
            <path d="M9.21,1.09 C12.66,-0.75 16.13,2.43 15.99,5.96 C16.24,8.22 14.68,11.24 12.05,10.82 C8.07,9.88 6.58,4.08 9.21,1.09 L9.21,1.09 Z" id="Shape" fill="#000007"></path>
            <path d="M21.26,1.01 C22.85,0.64 25.24,0.02 26.18,1.86 C28.34,5.28 25.72,11.83 21.11,10.68 C17.71,8.61 18.37,3.23 21.26,1.01 L21.26,1.01 Z" id="Shape" fill="#000007"></path>
            <path d="M0,10.17 C0.51,9.68 1.53,8.68 2.04,8.19 C3.85,8.74 5.9,9.41 6.63,11.37 C7.68,13.21 7.43,16.5 4.89,16.87 C2.34,17.08 0.89,14.63 0,12.62 L0,10.17 L0,10.17 Z" id="Shape" fill="#000007"></path>
            <path d="M30.19,9.06 C31.87,7.68 34.78,8.67 34.41,11.1 C35.19,14.19 31.82,18.27 28.7,16.35 C26.51,14.26 27.92,10.51 30.19,9.06 L30.19,9.06 Z" id="Shape" fill="#000007"></path>
            <path d="M18.01,12.92 C25.29,12.72 29.1,21.95 25.73,27.73 C23.27,31.93 21.4,37.04 17.03,39.64 C13.19,36.11 10.77,31.35 8.51,26.72 C5.72,20.48 10.69,11.78 18.01,12.92 Z" id="Shape" fill="#000007"></path>
            <path d="M16.36,20.41 C18.26,19.47 20.69,21.64 19.67,23.6 C19.07,25.5 15.96,25.64 15.13,23.83 C14.4,22.63 15.02,20.85 16.36,20.41 L16.36,20.41 Z" id="Shape" fill="#FFFFFF"></path>
        </g>
    </g>
</svg>